# xmcd
#
# Track frame offsets: 
#        150
#        35087
#        59992
#        92350
#        118253
#        140443
#        159688
#        186388
#        216262
#        240403
#
# Disc length: 3811 seconds
#
# Revision: 4
# Processed by: cddbd v1.5.1PL2 Copyright (c) Steve Scherf et al.
# Submitted via: ExactAudioCopy v0.95b4
#
DISCID=980ee10a
DTITLE=Gerry Mulligan - The Complete Verve Gerry Mulligan Concert Jazz
DTITLE=Band Sessions Disc 2
DYEAR=1960
DGENRE=Jazz
TTITLE0=Go Home
TTITLE1=Barbara's Theme
TTITLE2=Theme From "I Want To Live"
TTITLE3=The Red Door
TTITLE4=Come Rain Or Come Shine
TTITLE5=Apple Core
TTITLE6=Go Home (Short Version)
TTITLE7=As Catch Can
TTITLE8=Young Blood
TTITLE9=Blueport
EXTD=YEAR: 1960
EXTT0=
EXTT1=
EXTT2=
EXTT3=
EXTT4=
EXTT5=
EXTT6=
EXTT7=
EXTT8=
EXTT9=
PLAYORDER=
